<?xml version="1.0" encoding="utf-8"?>
<!-- Uploaded to: SVG Repo, www.svgrepo.com, Generator: SVG Repo Mixer Tools -->
<svg fill="#000000" width="800px" height="800px" viewBox="-3 0 32 32" version="1.1" xmlns="http://www.w3.org/2000/svg">
<title>cloud</title>
<path d="M10.719 24.531h-5.375c-2.938 0-5.344-2.406-5.344-5.344 0-2.219 1.344-4.063 3.219-4.875 0-0.156-0.031-0.313-0.031-0.469 0-1.75 1.469-3.188 3.219-3.188 1.063 0 2 0.531 2.594 1.313 0.969-2.625 3.5-4.531 6.469-4.531 3.813 0 6.875 3.094 6.938 6.875 1.875 0.844 3.188 2.688 3.188 4.875 0 2.938-2.406 5.344-5.344 5.344h-5.219v-3.125h2.531c0.375 0 0.5-0.25 0.219-0.531l-4.406-4.719c-0.125-0.125-0.313-0.219-0.5-0.219s-0.406 0.094-0.531 0.219l-4.406 4.719c-0.25 0.281-0.188 0.531 0.219 0.531h2.563v3.125z"></path>
</svg>